<?xml version="1.0" encoding="utf-8"?>
<!-- Generator: Adobe Illustrator 24.1.2, SVG Export Plug-In . SVG Version: 6.00 Build 0)  -->
<svg version="1.1" xmlns="http://www.w3.org/2000/svg" xmlns:xlink="http://www.w3.org/1999/xlink" x="0px" y="0px"
	 viewBox="0 0 283.46 283.46" style="enable-background:new 0 0 283.46 283.46;" xml:space="preserve">
<style type="text/css">
	.st0{fill:#E04F39;}
	.st1{fill:#FFFFFF;}
	.st2{fill:none;}
</style>
<g id="fundo">
	<rect x="0" y="0" class="st0" width="283.46" height="283.46"/>
</g>
<g id="figura">
	<g>
		<ellipse class="st1" cx="73.79" cy="150.28" rx="13.4" ry="13.4"/>
		
			<rect x="60.48" y="105.6" transform="matrix(4.439211e-11 -1 1 4.439211e-11 -61.5062 192.7875)" class="st1" width="10.33" height="43.09"/>
	</g>
	<g>
		<path class="st1" d="M114.58,122.01v13h-3.9v-1.22c-0.86,0.99-2.13,1.59-3.88,1.59c-3.41,0-6.21-2.99-6.21-6.86
			c0-3.87,2.81-6.86,6.21-6.86c1.74,0,3.02,0.6,3.88,1.59v-1.22H114.58z M110.68,128.52c0-1.95-1.3-3.17-3.09-3.17
			c-1.79,0-3.09,1.22-3.09,3.17c0,1.95,1.3,3.17,3.09,3.17C109.38,131.69,110.68,130.47,110.68,128.52z"/>
		<path class="st1" d="M125.24,121.75v4.42c-1.61-0.26-3.9,0.39-3.9,2.96v5.88h-3.9v-13h3.9v2.31
			C121.86,122.59,123.6,121.75,125.24,121.75z"/>
		<path class="st1" d="M140.01,122.01v18.2h-3.9v-6.42c-0.86,0.99-2.13,1.59-3.88,1.59c-3.41,0-6.21-2.99-6.21-6.86
			c0-3.87,2.81-6.86,6.21-6.86c1.74,0,3.02,0.6,3.88,1.59v-1.22H140.01z M136.11,128.52c0-1.95-1.3-3.17-3.09-3.17
			c-1.79,0-3.09,1.22-3.09,3.17c0,1.95,1.3,3.17,3.09,3.17C134.81,131.69,136.11,130.47,136.11,128.52z"/>
		<path class="st1" d="M155.17,122.01v13h-3.9v-1.22c-0.7,0.96-2,1.59-3.72,1.59c-2.63,0-4.86-1.87-4.86-5.38v-7.98h3.9v7.41
			c0,1.61,1.01,2.37,2.26,2.37c1.43,0,2.42-0.83,2.42-2.68v-7.1H155.17z"/>
		<path class="st1" d="M157.64,118.53c0-1.27,1.07-2.34,2.34-2.34s2.34,1.07,2.34,2.34c0,1.27-1.07,2.34-2.34,2.34
			S157.64,119.8,157.64,118.53z M158.03,122.01h3.9v13h-3.9V122.01z"/>
		<path class="st1" d="M169.73,125.76v4.6c0,1.12,0.96,1.22,2.68,1.12v3.54c-5.1,0.52-6.58-1.01-6.58-4.65v-4.6h-2.08v-3.74h2.08
			v-2.47l3.9-1.17v3.64h2.68v3.74H169.73z"/>
		<path class="st1" d="M180.96,131.9c1.07,0,1.98-0.42,2.5-0.99l3.12,1.79c-1.27,1.77-3.2,2.68-5.67,2.68c-4.45,0-7.2-2.99-7.2-6.86
			c0-3.87,2.81-6.86,6.92-6.86c3.8,0,6.6,2.94,6.6,6.86c0,0.55-0.05,1.07-0.16,1.56h-9.23C178.33,131.43,179.53,131.9,180.96,131.9z
			 M183.35,127.16c-0.42-1.51-1.59-2.05-2.76-2.05c-1.48,0-2.47,0.73-2.83,2.05H183.35z"/>
		<path class="st1" d="M193.98,125.76v4.6c0,1.12,0.96,1.22,2.68,1.12v3.54c-5.1,0.52-6.58-1.01-6.58-4.65v-4.6H188v-3.74h2.08
			v-2.47l3.9-1.17v3.64h2.68v3.74H193.98z"/>
		<path class="st1" d="M211.43,122.01v13h-3.9v-1.22c-0.7,0.96-2,1.59-3.72,1.59c-2.63,0-4.86-1.87-4.86-5.38v-7.98h3.9v7.41
			c0,1.61,1.01,2.37,2.26,2.37c1.43,0,2.42-0.83,2.42-2.68v-7.1H211.43z"/>
		<path class="st1" d="M222.09,121.75v4.42c-1.61-0.26-3.9,0.39-3.9,2.96v5.88h-3.9v-13h3.9v2.31
			C218.71,122.59,220.45,121.75,222.09,121.75z"/>
		<path class="st1" d="M236.86,122.01v13h-3.9v-1.22c-0.86,0.99-2.13,1.59-3.87,1.59c-3.41,0-6.21-2.99-6.21-6.86
			c0-3.87,2.81-6.86,6.21-6.86c1.74,0,3.02,0.6,3.87,1.59v-1.22H236.86z M232.96,128.52c0-1.95-1.3-3.17-3.09-3.17
			s-3.09,1.22-3.09,3.17c0,1.95,1.3,3.17,3.09,3.17S232.96,130.47,232.96,128.52z"/>
	</g>
	<g>
		<path class="st1" d="M101.24,144.54h3.9v18.98h-3.9V144.54z"/>
		<path class="st1" d="M107.35,157.02c0-3.87,3.07-6.86,6.89-6.86c3.82,0,6.89,2.99,6.89,6.86s-3.07,6.86-6.89,6.86
			C110.42,163.89,107.35,160.9,107.35,157.02z M117.23,157.02c0-1.85-1.3-3.07-2.99-3.07s-2.99,1.22-2.99,3.07
			c0,1.85,1.3,3.07,2.99,3.07S117.23,158.87,117.23,157.02z"/>
		<path class="st1" d="M122.69,157.02c0-3.87,2.94-6.86,6.89-6.86c2.52,0,4.76,1.33,5.88,3.33l-3.41,1.98
			c-0.44-0.91-1.38-1.46-2.52-1.46c-1.69,0-2.94,1.22-2.94,3.02s1.25,3.02,2.94,3.02c1.14,0,2.11-0.55,2.52-1.46l3.41,1.95
			c-1.12,2.03-3.33,3.35-5.88,3.35C125.63,163.89,122.69,160.9,122.69,157.02z"/>
		<path class="st1" d="M150.1,150.52v13h-3.9v-1.22c-0.86,0.99-2.13,1.59-3.88,1.59c-3.41,0-6.21-2.99-6.21-6.86
			s2.81-6.86,6.21-6.86c1.74,0,3.02,0.6,3.88,1.59v-1.22H150.1z M146.2,157.02c0-1.95-1.3-3.17-3.09-3.17
			c-1.79,0-3.09,1.22-3.09,3.17s1.3,3.17,3.09,3.17C144.9,160.2,146.2,158.97,146.2,157.02z"/>
		<path class="st1" d="M152.96,144.54h3.9v18.98h-3.9V144.54z"/>
	</g>
	<g>
		<path class="st2" d="M230.51,139.46c-1.69,0-2.99,1.22-2.99,3.07c0,1.85,1.3,3.07,2.99,3.07c1.69,0,2.99-1.22,2.99-3.07
			C233.51,140.69,232.21,139.46,230.51,139.46z"/>
	</g>
	<g>
		<path class="st2" d="M172.18,139.46c-1.69,0-2.99,1.22-2.99,3.07c0,1.85,1.3,3.07,2.99,3.07c1.69,0,2.99-1.22,2.99-3.07
			C175.18,140.69,173.87,139.46,172.18,139.46z"/>
	</g>
	<g>
		<path class="st2" d="M49.79,139.46c-1.69,0-2.99,1.22-2.99,3.07c0,1.85,1.3,3.07,2.99,3.07c1.69,0,2.99-1.22,2.99-3.07
			C52.79,140.69,51.48,139.46,49.79,139.46z"/>
	</g>
</g>
</svg>
